<svg width="47" height="25" viewBox="0 0 47 25" fill="none" xmlns="http://www.w3.org/2000/svg">
<path d="M1.35352 7.89062V5.42969H9.70312V19.3516H6.89062V7.89062H1.35352ZM11.1621 19.791V5.07812H13.9746V10.5801H15.7676V13.041H13.9746V19.791H11.1621ZM16.6574 12.0215C18.7316 11.0547 20.3313 9.5957 20.3313 7.99609V7.71484H17.3078V5.28906H26.009V7.71484H23.0207V8.22461C23.0207 8.55859 22.9855 8.875 22.9152 9.17383C23.9875 10.123 25.6574 11.1602 26.9055 11.6523L25.3938 13.8672C24.2688 13.3926 22.7922 12.3906 21.7375 11.4414C20.8586 12.4961 19.6105 13.4102 18.3625 14.1133L16.6574 12.0215ZM18.2043 19.6504V14.8164H21.0168V17.1719H30.8078V19.6504H18.2043ZM25.3586 10.5625V8.13672H27.7668V5.07812H30.5793V15.2383H27.7668V10.5625H25.3586Z" fill="#30333D"/>
<path d="M37.1328 13H35.2344L38.1758 4.51562H40.4375L43.3672 13H41.4805L40.8477 11.043H37.7773L37.1328 13ZM38.2227 9.67188H40.4023L39.3359 6.42578H39.2773L38.2227 9.67188ZM45.8859 4.51562V13H44.1281V4.51562H45.8859Z" fill="#2970FF"/>
</svg>
