<svg width="16" height="16" viewBox="0 0 16 16" fill="none" xmlns="http://www.w3.org/2000/svg">
<g clip-path="url(#clip0_828_155098)">
<path d="M7.65541 0.895431C7.77682 0.57994 8.22318 0.57994 8.34459 0.895431L9.24134 3.22563C9.86643 4.84992 11.1501 6.13357 12.7744 6.75866L15.1046 7.65541C15.4201 7.77682 15.4201 8.22318 15.1046 8.34459L12.7744 9.24134C11.1501 9.86643 9.86643 11.1501 9.24134 12.7744L8.34459 15.1046C8.22318 15.4201 7.77682 15.4201 7.65541 15.1046L6.75866 12.7744C6.13357 11.1501 4.84992 9.86643 3.22563 9.24134L0.895431 8.34459C0.57994 8.22318 0.57994 7.77682 0.895431 7.65541L3.22563 6.75866C4.84992 6.13357 6.13357 4.84992 6.75866 3.22563L7.65541 0.895431Z" fill="url(#paint0_linear_828_155098)"/>
</g>
<defs>
<linearGradient id="paint0_linear_828_155098" x1="16" y1="7.99999" x2="0" y2="7.99999" gradientUnits="userSpaceOnUse">
<stop stop-color="#77A0FF"/>
<stop offset="0.7" stop-color="#907FFF"/>
<stop offset="1" stop-color="#6947FF"/>
</linearGradient>
<clipPath id="clip0_828_155098">
<rect width="16" height="16" fill="white"/>
</clipPath>
</defs>
</svg>
