<svg width="18" height="18" viewBox="0 0 18 18" fill="none" xmlns="http://www.w3.org/2000/svg">
<path d="M8.50998 1.99439C8.72514 1.61265 9.27486 1.61265 9.49002 1.99439L11.3731 5.33538C11.4534 5.47779 11.5917 5.57824 11.7519 5.61057L15.5113 6.36911C15.9409 6.45578 16.1107 6.97859 15.8142 7.30118L13.2186 10.1246C13.108 10.2449 13.0552 10.4074 13.0739 10.5698L13.5142 14.3796C13.5645 14.8149 13.1198 15.1381 12.7214 14.9557L9.23409 13.3596C9.08544 13.2916 8.91456 13.2916 8.76591 13.3596L5.27864 14.9557C4.88019 15.1381 4.43546 14.8149 4.48577 14.3796L4.92608 10.5698C4.94484 10.4074 4.89204 10.2449 4.7814 10.1246L2.18584 7.30118C1.88927 6.97859 2.05915 6.45578 2.48869 6.36911L6.24808 5.61057C6.40833 5.57824 6.54658 5.47779 6.62685 5.33538L8.50998 1.99439Z" fill="#E2E2E7"/>
</svg>
