<svg width="79" height="25" viewBox="0 0 79 25" fill="none" xmlns="http://www.w3.org/2000/svg">
<path d="M1.42383 8.85742C1.42383 6.58984 3.07617 5.20117 5.34375 5.20117H5.81836C8.08594 5.20117 9.73828 6.58984 9.73828 8.85742V15.7129C9.73828 17.9805 8.08594 19.3691 5.81836 19.3691H5.34375C3.07617 19.3691 1.42383 17.9805 1.42383 15.7129V8.85742ZM4.20117 15.6602C4.20117 16.4688 4.74609 16.9082 5.44922 16.9082H5.71289C6.41602 16.9082 6.96094 16.4688 6.96094 15.6602V8.91016C6.96094 8.10156 6.41602 7.66211 5.71289 7.66211H5.44922C4.74609 7.66211 4.20117 8.10156 4.20117 8.91016V15.6602ZM11.1621 19.791V5.07812H13.9746V10.5801H15.7676V13.041H13.9746V19.791H11.1621ZM17.4133 7.89062V5.42969H25.7629V19.3516H22.9504V7.89062H17.4133ZM27.7668 19.791V5.07812H30.5793V19.791H27.7668ZM33.7543 7.76758C33.7543 6.0625 35.0199 5.13086 36.9184 5.13086H43.1234C45.0219 5.13086 46.2875 6.0625 46.2875 7.76758C46.2875 9.13867 45.4789 10.0176 44.1957 10.3164V11.3887H47.3598V13.5684H32.6996V11.3887H35.8637V10.3164C34.5629 10.0176 33.7543 9.13867 33.7543 7.76758ZM33.7543 17.1016C33.7543 15.502 35.0023 14.3945 36.9711 14.3945H43.0883C45.057 14.3945 46.3051 15.502 46.3051 17.1016C46.3051 18.7188 45.057 19.8262 43.0883 19.8262H36.9711C35.0023 19.8262 33.7543 18.7188 33.7543 17.1016ZM36.5668 17.1016C36.5668 17.3828 36.8129 17.6113 37.1117 17.6113H42.9477C43.2465 17.6113 43.4926 17.3828 43.4926 17.1016C43.4926 16.8203 43.2465 16.6094 42.9477 16.6094H37.1117C36.8129 16.6094 36.5668 16.8203 36.5668 17.1016ZM36.5668 7.76758C36.5668 8.08398 36.8129 8.20703 37.1117 8.20703H42.9301C43.2289 8.20703 43.475 8.08398 43.475 7.76758C43.475 7.45117 43.2289 7.3457 42.9301 7.3457H37.1117C36.8129 7.3457 36.5668 7.45117 36.5668 7.76758ZM38.6762 11.3887H41.3832V10.4219H38.6762V11.3887ZM62.3824 8.20703V10.4219H49.6207V8.20703H51.6422L51.5895 7.31055H49.6207V5.0957H62.3824V7.31055H60.4137L60.3609 8.20703H62.3824ZM48.6715 13.4453V11.125H63.3316V13.4453H57.4078V14.3594H62.2066V19.791H49.8141V14.3594H54.5953V13.4453H48.6715ZM52.6266 17.5762H59.3941V16.5742H52.6266V17.5762ZM54.402 7.31055L54.4547 8.20703H57.5484L57.6012 7.31055H54.402Z" fill="#30333D"/>
<path d="M69.1328 13H67.2344L70.1758 4.51562H72.4375L75.3672 13H73.4805L72.8477 11.043H69.7773L69.1328 13ZM70.2227 9.67188H72.4023L71.3359 6.42578H71.2773L70.2227 9.67188ZM77.8859 4.51562V13H76.1281V4.51562H77.8859Z" fill="#3662FF"/>
</svg>
